<svg id="design" viewBox="0 0 520.76 146.19">
    <path class="cls-1" d="M32,113.23c-2.17-1.67-4.1-9.3,5.5-26.51,10.33-17.16,32.1-53.6,36.5-62,4.66-9,10-26.4-6-24-5.5.84-23.6,6.8-58,24-3,1.34-9.1,3.6-9.5,2-.5-2,21.5-9.5,44.5-14.5,12.33-3,41.7-7.8,60.5-3,13.33,2.67,37.3,17,26.5,53-1.67,11.17-13.4,39.21-47,62-15.67,9.66-47.8,23.2-51,0,1.16-9.67,8.8-27.8,30-23,12.66,6,47.1,11.5,83.5-14.51l9.5-8.5c7.66,1.84,23.9,2.7,27.5-8.5-2.5-3.5-11.1-6.1-25.5,11.5-5.67,6.84-12.5,20.71,5.5,21.51,9.83.16,34.6-4.5,55-24.51m0,0c-1.5-1.5-1.1-7.7,12.5-20.5,4-3.66,12.8-10.9,16-10.5,1.16.34,2.7,2.2-.5,7l-7,11.5c-.67,1.5-1.9,4.8-1.5,6m-19.5,6.5c.5,1.17,5.1,2.3,19.5-2.5,5.16-1.5,16.5-3.6,20.5,0,3.5,3.34,5.7,13.6-13.5,28-7.67,5-23.7,13.7-26.5,8.5-.84-1,.3-4.6,11.5-11,15-7.84,48-23.31,60-22.51m2.5-4c-5.34,9.5-12.8,28.71,0,29.51,16,1,30.5-8,48.5-20m0,0c7.5-9.5,23.3-24.9,26.5-10.5l-1,6M342,84.22c-3.34,4.67-8.6,13.81-3,13s24.33-16,33-23.51l17.5-11.5c2.33-1.33,6-3.7,2-2.5-5,1.5-15.5,11-9.5,22s14.5,20.51,0,45c-5.17,7.5-18.4,21.7-30,18.5-2.84-1-3.7-7.5,15.5-25.5,12.16-11,39.9-34.61,53.5-41m0,0,10.5-28m-10.5,28c-3.17,8.5-7.9,25.51-1.5,25.51,2-.5,7.8-4.6,15-17,6-9.66,19.8-28.1,27-24.5,1,.17,2,3.6-2,16-2.84,6.84-3,19.21,19,14,7.33-1.34,24.3-6,33.5-14m-211.5-27c-2.34,3.67-5.1,10,2.5,6,3.16-2.5,7.9-7.2,1.5-6l-7,3.5M519,73.72c-1.34-.5-4.1-.7-4.5,2.5.5,1.34,2.3,3.5,5.5,1.5C520.34,76.48,520.61,73.94,519,73.72Z"/>
</svg>