<svg class="development" viewBox="0 0 844.09 153.72">
    <path class="path" d="M31.89,117.58c-2-2.5-2.5-13.1,11.5-35.5,17.5-28,34-56,36.5-68,1.17-5.33-2.8-13.6-28-4l-46.5,22c-3.33.17-8.3-.2-1.5-3,8.5-3.5,53.5-20,80-17.5,16.84-.17,50.6,6.4,51,34,2,16.83-6.2,57.7-55,86.5-16.16,9-47.9,19.9-45.5-8.5,2.17-9.33,12.7-25.4,37.5-15,12.84,4,46.5,5.7,78.5-19.5l6.5-5.5c7.67,1.17,23.9,1.3,27.5-7.5.17-3.17-2.8-7.6-16,0-11.83,11-28.4,32.6,0,31,10.67-1.17,35.7-7.5,50.5-23.5m0,0c1-10,4.1-30.8,8.5-34,1.17-.33,2.8.5,0,6.5m-8.5,27.5c-1,11.5-.2,33.1,11,27.5,14-7,19.5-17.5,26.5-30.5,1.5-3.17,3.6-9.5,0-9.5-4.5,0,1,9.5,3,10.5,2.17,2.33,10.1,6,24.5,2,8.17,1.33,25.2,1.5,28-8.5-1.16-3.17-7.1-6.5-21.5,5.5-3.5,3.67-10.5,12.7-10.5,19.5,0,8.5,30,15,66.5-16.5m0,0c5.84-24.83,20.5-76.2,32.5-83,1-.33,2.2.2-1,5a20.33,20.33,0,0,0-2.5,11m-29,67c-4.33,19.33-9.3,57.2,5.5,54,3.17,1.33,15.4-5,39-41l9-13,1.5,2m0,0c1.17-4.17,5.1-14.2,11.5-21m-11.5,21c-2.66,8.67-5.9,25.6,2.5,24,3.5.67,13.4-3.2,25-24,4.17-8.33,8.5-24.2-7.5-21-4.16.33-14.3,4.1-21.5,16.5-.5,3.17,2.3,9.4,17.5,9,19-.5,22-1.5,42-6.5m0,0c.84-5.33,2.8-18.2,4-27m-4,27c-3.83,21.83-13.1,66.2-19.5,69-2.22,2-4.42.5,4.5-21.5,11.15-27.5,20-58.5,46-78,6.5-2.83,19.4-5.7,19,5.5.5,5.33-4.9,19.9-30.5,35.5-4.66,1.5-14,3.2-14-2,.84-.67,5.5-2,17.5-2,15,0,34-1.5,40-6.5m0,0,8.5-17.5m-8.5,17.5c-2.83,7.17-7,20.9-1,18.5,1.34-1,5.1-4.8,9.5-12,7.34-11.5,22.9-33.9,26.5-31.5,1.5-.17,2.5,2.9-3.5,16.5-4.33,9-11.7,26.8-6.5,26,1.84,0,9.9-4.6,27.5-23,5.67-4.83,16.8-12.2,16-3-2.16,6.83-5.4,21.4-1,25,.34,1.67,6.1,2,26.5-10l13-7c4.5,1.5,15.4,3.2,23-2,4.5-3.67,10.1-10.5-3.5-8.5-5.66,2-18.2,9.8-23,25-.66,5,3.1,13.7,23.5,8.5,7.84-1.5,27.3-8.1,42.5-22.5m0,0,10-27m-10,27c-3.16,7.5-8.1,23.1-2.5,25.5.5,1,3.7-.1,12.5-12.5,6.5-10.83,21.5-31.8,29.5-29,1-.33,2.2,1.8-1,13-1.5,5-3.1,15.4,2.5,17,6.5,2.33,26.3,2.8,49.5-14m0,0c6.5-20.67,21.7-65.3,30.5-78.5m-30.5,78.5c-4.83,15.17-14.8,47.3-16,54.5-1.16,4.83-2.5,13.5,1.5,9.5,1.67-6.67,6.2-25.6,11-48l14.5-55c2-8,3.2-23.4-8-21a12.41,12.41,0,0,0-8,4.5c4.67-1.33,15.6-3.8,22-3,13.67-.67,41.7-2.3,44.5-3.5"/>
</svg>