<svg xmlns="http://www.w3.org/2000/svg" viewBox="0 0 552.19 157.15">
    <path class="path" d="M107.69,22.25c-3-6-21.3-14.4-70.5,0s-38.5,27.33-27,32m69.5-52c-.5,4.17-2.9,16-8.5,30l-11.5,31.5-20,51.5c-3.83,10-11.8,31-13,35l-1,5c.17,1.33.9,2.9,2.5-1.5,2-5.5,8-30.5,8.5-34.5s6.5-48.5-8.5-45c-2.33,2.33-2.9,7.9,13.5,9.5a324.93,324.93,0,0,0,66-.5c5.84-.83,19.6-3.4,26-5m0,0c1.5-5.5,4.5-17,3.5-23m-3.5,23-5.5,19.5c-.33,1.5-.5,4.4,1.5,4s3.5-7.83,4-11.5c2.5-12.5,11.1-36.1,25.5-30.5a55.85,55.85,0,0,0,6,4,11.92,11.92,0,0,0,5.5,1.5m12.5-5.5c-3.66,4.33-11.6,16.1-14,28.5-3,15.5,2,23.5,18.5,9.5s21.5-40,7-39-30,19-22.5,23,33.5,5.5,57.5-3.5m0,0c2.67-7.5,8.4-23.3,10-26.5m-10,26.5c-3.16,8.5-8.1,25.6-2.5,26,1.34.67,6.2-1.6,15-16,6.5-10.67,21.2-30.6,28-25,.17,1.33-.1,5.9-2.5,13.5-2.66,8-2.5,22.5,19.5,16.5s31.17-12.17,33-14.5m0,0c7.34-21.83,23.5-68.1,29.5-78.5m-29.5,78.5-9.5,30.5c-2.83,8.67-8,27-8,30.5-.16,1.5.4,3.9,2,3.5.67,0,2.4-2.2,4-11,2-11,7-33,9-42.5s18-51.5,14-66c0-2.17-2.1-6.1-10.5-4.5-1.83.83-5.6,2.9-6,4.5s-.83.67-1,0c3.84-1.5,15.1-4.5,29.5-4.5,8.5,0,27.9-.4,37.5-2m-43,61.5c9.67,1,28.7.3,27.5-10.5-3.33-2.5-13.8-2.4-29,18-5.33,10.17-4.5,26,41.5,8,6-2.83,18.8-9.9,22-15.5m0,0c4-7,5.5-16,10-26.5m-10,26.5c-3.33,9.5-8,27.9,0,25.5,2.67-2.67,11.2-12.7,24-31.5,5.34-6.17,16.3-16.2,17.5-7l-3.5,17c-2,7.5,2.8,19,38,5,4.34-1.83,13.5-6.2,15.5-9m0,0c7.84-14.33,24.8-38.7,30-21.5.67,3.67,1.6,11.9,0,15.5m-30,6c-5.33,10-12.1,27.9,3.5,19.5s44.17-64.5,56.5-91.5c0-3.17-1.2-6.9-6,3.5s-16.66,52.67-22,72.5c-4,19-11.7,58.4-10.5,64,.17,2.33,1.3,4.8,4.5-4"/>
</svg>