<svg width="1460" height="163" viewBox="0 0 1460 163" fill="none" xmlns="http://www.w3.org/2000/svg">
    <path d="M108.193 27.5801C105.193 21.5801 86.8928 13.1801 37.6928 27.5801C-11.5072 41.9801 -0.80724 54.9134 10.6928 59.58M80.1924 7.58003C79.6924 11.7467 77.2924 23.58 71.6924 37.58L60.1924 69.08L40.1924 120.58C36.359 130.58 28.3924 151.58 27.1924 155.58L26.1924 160.58C26.359 161.913 27.0924 163.48 28.6924 159.08C30.6924 153.58 36.6924 128.58 37.1924 124.58C37.6924 120.58 43.6924 76.08 28.6924 79.58C26.359 81.9134 25.7924 87.48 42.1924 89.08C62.6924 91.08 84.1924 91.08 108.192 88.58C114.026 87.7467 127.792 85.18 134.192 83.58M134.192 83.58C135.692 78.08 138.692 66.58 137.692 60.58M134.192 83.58L128.692 103.08C128.359 104.58 128.192 107.48 130.192 107.08C132.192 106.68 133.692 99.2467 134.192 95.58C136.692 83.08 145.292 59.48 159.692 65.08C161.026 66.08 164.092 68.28 165.692 69.08C166.526 69.58 168.792 70.58 171.192 70.58M183.692 65.08C180.026 69.4134 172.092 81.18 169.692 93.58C166.692 109.08 171.692 117.08 188.192 103.08C204.692 89.08 209.692 63.08 195.192 64.08C180.692 65.08 165.192 83.08 172.692 87.08C180.192 91.08 206.192 92.58 230.192 83.58M230.192 83.58C232.859 76.08 238.592 60.28 240.192 57.08M230.192 83.58C227.026 92.08 222.092 109.18 227.692 109.58C229.026 110.247 233.892 107.98 242.692 93.58C249.192 82.9134 263.892 62.98 270.692 68.58C270.859 69.9134 270.592 74.48 268.192 82.08C265.526 90.08 265.692 104.58 287.692 98.58C309.692 92.58 318.859 86.4134 320.692 84.08M320.692 84.08C328.026 62.2467 344.192 15.98 350.192 5.58003M320.692 84.08L311.192 114.58C308.359 123.247 303.192 141.58 303.192 145.08C303.026 146.58 303.592 148.98 305.192 148.58C305.859 148.58 307.592 146.38 309.192 137.58C311.192 126.58 316.16 104.58 318.192 95.08C320.225 85.58 336.192 43.58 332.192 29.08C332.192 26.9134 330.092 22.98 321.692 24.58C319.859 25.4134 316.092 27.48 315.692 29.08C315.292 30.68 314.859 29.7467 314.692 29.08C318.526 27.58 329.792 24.58 344.192 24.58C352.692 24.58 372.092 24.18 381.692 22.58M338.692 84.08C348.359 85.08 367.392 84.38 366.192 73.58C362.859 71.08 352.392 71.18 337.192 91.58C331.859 101.747 332.692 117.58 378.692 99.58C384.692 96.7467 397.492 89.68 400.692 84.08M400.692 84.08C404.692 77.08 406.192 68.08 410.692 57.58M400.692 84.08C397.359 93.58 392.692 111.98 400.692 109.58C403.359 106.913 411.892 96.88 424.692 78.08C430.026 71.9134 440.992 61.88 442.192 71.08L438.692 88.08C436.692 95.58 441.492 107.08 476.692 93.08C481.026 91.2467 490.192 86.88 492.192 84.08M492.192 84.08C500.026 69.7467 516.992 45.38 522.192 62.58C522.859 66.2467 523.792 74.48 522.192 78.08M492.192 84.08C486.859 94.08 480.092 111.98 495.692 103.58C511.292 95.18 539.859 39.08 552.192 12.08C552.192 8.91336 550.992 5.18003 546.192 15.58C541.392 25.98 529.526 68.2467 524.192 88.08C520.192 107.08 512.492 146.48 513.692 152.08C513.859 154.413 514.992 156.88 518.192 148.08M647.192 118.08C645.192 115.58 644.692 104.98 658.692 82.58C676.192 54.58 692.692 26.58 695.192 14.58C696.359 9.2467 692.392 0.98003 667.192 10.58L620.692 32.58C617.359 32.7467 612.392 32.38 619.192 29.58C627.692 26.08 672.692 9.58003 699.192 12.08C716.026 11.9134 749.792 18.48 750.192 46.08C752.192 62.9134 743.992 103.78 695.192 132.58C679.026 141.58 647.292 152.48 649.692 124.08C651.859 114.747 662.392 98.68 687.192 109.08C700.026 113.08 733.692 114.78 765.692 89.58L772.192 84.08C779.859 85.2467 796.092 85.38 799.692 76.58C799.859 73.4134 796.892 68.98 783.692 76.58C771.859 87.58 755.292 109.18 783.692 107.58C794.359 106.413 819.392 100.08 834.192 84.08M834.192 84.08C835.192 74.08 838.292 53.28 842.692 50.08C843.859 49.7467 845.492 50.58 842.692 56.58M834.192 84.08C833.192 95.58 833.992 117.18 845.192 111.58C859.192 104.58 864.692 94.08 871.692 81.08C873.192 77.9134 875.292 71.58 871.692 71.58C867.192 71.58 872.692 81.08 874.692 82.08C876.859 84.4134 884.792 88.08 899.192 84.08C907.359 85.4134 924.392 85.58 927.192 75.58C926.026 72.4134 920.092 69.08 905.692 81.08C902.192 84.7467 895.192 93.78 895.192 100.58C895.192 109.08 925.192 115.58 961.692 84.08M961.692 84.08C967.526 59.2467 982.192 7.88003 994.192 1.08003C995.192 0.746697 996.392 1.28003 993.192 6.08003C992.192 7.74671 990.292 12.2801 990.692 17.0801M961.692 84.08C957.359 103.413 952.392 141.28 967.192 138.08C970.359 139.413 982.592 133.08 1006.19 97.0801L1015.19 84.08L1016.69 86.0801M1016.69 86.0801C1017.86 81.9134 1021.79 71.8801 1028.19 65.0801M1016.69 86.0801C1014.03 94.7467 1010.79 111.68 1019.19 110.08C1022.69 110.747 1032.59 106.88 1044.19 86.0801C1048.36 77.7467 1052.69 61.8801 1036.69 65.0801C1032.53 65.4134 1022.39 69.1801 1015.19 81.5801C1014.69 84.7467 1017.49 90.9801 1032.69 90.5801C1051.69 90.0801 1054.69 89.08 1074.69 84.08M1074.69 84.08C1075.53 78.7467 1077.49 65.8801 1078.69 57.0801M1074.69 84.08C1070.86 105.913 1061.59 150.28 1055.19 153.08C1052.97 155.08 1050.77 153.58 1059.69 131.58C1070.84 104.08 1079.69 73.0801 1105.69 53.5801C1112.19 50.7467 1125.09 47.8801 1124.69 59.0801C1125.19 64.4134 1119.79 78.9801 1094.19 94.5801C1089.53 96.0801 1080.19 97.7801 1080.19 92.5801C1081.03 91.9134 1085.69 90.5801 1097.69 90.5801C1112.69 90.5801 1131.69 89.08 1137.69 84.08M1137.69 84.08L1146.19 66.5801M1137.69 84.08C1134.86 91.2467 1130.69 104.98 1136.69 102.58C1138.03 101.58 1141.79 97.7801 1146.19 90.5801C1153.53 79.0801 1169.09 56.6801 1172.69 59.0801C1174.19 58.9134 1175.19 61.9801 1169.19 75.5801C1164.86 84.5801 1157.49 102.38 1162.69 101.58C1164.53 101.58 1172.59 96.9801 1190.19 78.5801C1195.86 73.7467 1206.99 66.3801 1206.19 75.5801C1204.03 82.4134 1200.79 96.9801 1205.19 100.58C1205.53 102.247 1211.29 102.58 1231.69 90.5801L1244.69 83.5801C1249.19 85.0801 1260.09 86.7801 1267.69 81.5801C1272.19 77.9134 1277.79 71.0801 1264.19 73.0801C1258.53 75.0801 1245.99 82.8801 1241.19 98.0801C1240.53 103.08 1244.29 111.78 1264.69 106.58C1272.53 105.08 1291.99 98.4801 1307.19 84.0801M1307.19 84.0801L1317.19 57.0801M1307.19 84.0801C1304.03 91.5801 1299.09 107.18 1304.69 109.58C1305.19 110.58 1308.39 109.48 1317.19 97.0801C1323.69 86.2467 1338.69 65.2801 1346.69 68.0801C1347.69 67.7467 1348.89 69.8801 1345.69 81.0801C1344.19 86.0801 1342.59 96.4801 1348.19 98.0801C1354.69 100.413 1374.49 100.88 1397.69 84.0801M1397.69 84.0801C1404.19 63.4134 1419.39 18.7801 1428.19 5.58008M1397.69 84.0801C1392.86 99.2467 1382.89 131.38 1381.69 138.58C1380.53 143.413 1379.19 152.08 1383.19 148.08C1384.86 141.413 1389.39 122.48 1394.19 100.08L1408.69 45.0801C1410.69 37.0801 1411.89 21.6801 1400.69 24.0801C1399.03 24.2467 1395.09 25.3801 1392.69 28.5801C1397.36 27.2467 1408.29 24.7801 1414.69 25.5801C1428.36 24.9134 1456.39 23.2801 1459.19 22.0801" stroke="black"/>
</svg>
