<svg class="graphic" viewBox="0 0 481.07 156.06">
    <path class="path" d="M90.77,48.55c-7.67,1.83-21.6,2.1-16-11.5,5.16-10.33,12.5-31,2.5-29-3.84-1-16.6,3.8-39,29-19.34,24.17-52.5,73.2-30.5,76,3.33,2,21.9-4.1,69.5-44.5,7.16-5.83,22.9-18.9,28.5-24.5,1.16-1.67,2.9-4.9.5-4.5s-6.84,10.83-8.5,16l-24,51.5c-9.5,18.17-30.7,52.7-39.5,45.5-4.67-3.67-11.2-14.6,0-29,6.5-7.5,28.2-24.7,63-33.5,6-1.33,19.3-4.1,24.5-4.5m0,0c1.83-4.83,5.2-16.3,4-23.5m-4,23.5-5,19.5c-.34,2-.3,5.2,2.5,2,1-3,3.1-9.9,3.5-13.5,2.66-10,10.6-29.5,21-27.5a21,21,0,0,1,8.5,4c1.33,1,4.6,2.8,7,2m28,5-4.5-7c-.67-1.17-3.5-2.8-9.5,0-6.84,4.5-21,16.7-23,29.5-.67,4,2.1,8,18.5-8,5-5.83,16-17.8,24-21,1.66-.83,4.8.2,4,11-1,8,2.7,21,25.5,9l12-5.5m0,0c1.5-7.67,4.4-23.8,4-27m-4,27-10.5,50.5c-2,6.67-6.7,20-9.5,20-1.34.17-2.6-2,1-12,6-15,18.5-46,20.5-50,6.83-15.5,25.1-45.3,43.5-40.5,4.16,1,10,6.5,0,20.5-5.34,7.43-19,22.63-31,24-2.67,0-8.2-.6-9-3-.5-1,3-3,21-3,10,.33,31.5-.5,37.5-6.5m0,0c8.66-22,26.9-68.6,30.5-79,.83-2.83,1.8-7.7-1-4.5l-3,6m-26.5,77.5-9,26c-.5,3-.6,8.3,3,5.5,3-3,12.3-14.6,25.5-37,3.33-6.17,11.1-18.8,15.5-20,1-.5,2.7,1.2,1.5,12l-2.5,14.5c-.5,4.33.6,12.4,9,10,4.66-1,16.1-4.6,24.5-11m2.5-4c-2.34,4.17-6.9,13.9-6.5,19.5.5,7,3,16.5,28.5,6.5,4.66-1.67,17-7.6,29-18m0,0c8.33-9.33,26.8-27.2,34-24,1,.17,1.8,3.3-3,14.5-.34,1.5-.6,4.7,1,5.5m-32,4c-4.17,5.17-10,16.3,0,19.5,8.16,1.83,32-.3,62-23.5m-105.5-26.5c-1.84,2.83-4.4,8.3,0,7.5,3.83-2.83,10.1-8.3,4.5-7.5l-7,3"/>
</svg>