<svg width="1067" height="157" viewBox="0 0 1067 157" fill="none" xmlns="http://www.w3.org/2000/svg">
    <path class="path" d="M91.2656 49.051C83.5989 50.8844 69.6656 51.151 75.2656 37.551C80.4324 27.2177 87.766 6.55086 77.766 8.55086C73.9327 7.55086 61.166 12.351 38.766 37.551C19.4327 61.7176 -13.734 110.751 8.266 113.551C11.5995 115.551 30.1663 109.451 77.766 69.0508C84.9325 63.2174 100.666 50.1506 106.266 44.5508C107.432 42.8841 109.166 39.6508 106.766 40.0508C104.366 40.4508 99.9323 50.8841 98.2656 56.0508L74.2656 107.551C64.7656 125.717 43.5656 160.251 34.7656 153.051C30.099 149.384 23.5656 138.451 34.7656 124.051C41.2656 116.551 62.9656 99.3508 97.7656 90.5508C103.766 89.2174 117.066 86.4508 122.266 86.0508M122.266 86.0508C124.099 81.2174 127.466 69.7508 126.266 62.5508M122.266 86.0508L117.266 105.551C116.932 107.551 116.966 110.751 119.766 107.551C120.766 104.551 122.866 97.6508 123.266 94.0508C125.932 84.0508 133.866 64.5508 144.266 66.5508C145.932 66.8841 149.966 68.1508 152.766 70.5508C154.099 71.5508 157.366 73.3508 159.766 72.5508M187.766 77.5508L183.266 70.5508C182.599 69.3841 179.766 67.7508 173.766 70.5508C166.932 75.0508 152.766 87.2508 150.766 100.051C150.099 104.051 152.866 108.051 169.266 92.0508C174.266 86.2174 185.266 74.2508 193.266 71.0508C194.932 70.2174 198.066 71.2508 197.266 82.0508C196.266 90.0508 199.966 103.051 222.766 91.0508L234.766 85.5508M234.766 85.5508C236.266 77.8841 239.166 61.7508 238.766 58.5508M234.766 85.5508L224.266 136.051C222.266 142.717 217.566 156.051 214.766 156.051C213.432 156.217 212.166 154.051 215.766 144.051C221.766 129.051 234.266 98.0508 236.266 94.0508C243.099 78.5508 261.366 48.7508 279.766 53.5508C283.932 54.5508 289.766 60.0508 279.766 74.0508C274.432 81.4796 260.766 96.6799 248.766 98.0508C246.099 98.0508 240.566 97.4508 239.766 95.0508C239.266 94.0508 242.766 92.0508 260.766 92.0508C270.766 92.3841 292.266 91.5508 298.266 85.5508M298.266 85.5508C306.932 63.5508 325.166 16.9508 328.766 6.55078C329.599 3.71745 330.566 -1.14922 327.766 2.05078L324.766 8.05078M298.266 85.5508L289.266 111.551C288.766 114.551 288.666 119.851 292.266 117.051C295.266 114.051 304.566 102.451 317.766 80.0508C321.099 73.8841 328.866 61.2508 333.266 60.0508C334.266 59.5508 335.966 61.2508 334.766 72.0508L332.266 86.5508C331.766 90.8841 332.866 98.9508 341.266 96.5508C345.932 95.5508 357.366 91.9508 365.766 85.5508M368.266 81.5508C365.932 85.7174 361.366 95.4508 361.766 101.051C362.266 108.051 364.766 117.551 390.266 107.551C394.932 105.884 407.266 99.9508 419.266 89.5508M419.266 89.5508C427.599 80.2174 446.066 62.3508 453.266 65.5508C454.266 65.7174 455.066 68.8508 450.266 80.0508C449.932 81.5508 449.666 84.7508 451.266 85.5508M419.266 89.5508C415.099 94.7174 409.266 105.851 419.266 109.051C427.432 110.884 451.266 108.751 481.266 85.5508M375.766 59.0508C373.932 61.8841 371.366 67.3508 375.766 66.5508C379.599 63.7174 385.866 58.2508 380.266 59.0508L373.266 62.0508M577.266 120.551C575.099 118.884 573.166 111.251 582.766 94.0508C593.099 76.8841 614.866 40.4508 619.266 32.0508C623.932 23.0508 629.266 5.65078 613.266 8.05078C607.766 8.88411 589.666 14.8508 555.266 32.0508C552.266 33.3841 546.166 35.6508 545.766 34.0508C545.266 32.0508 567.266 24.5508 590.266 19.5508C602.599 16.5508 631.966 11.7508 650.766 16.5508C664.099 19.2174 688.066 33.5508 677.266 69.5508C675.599 80.7174 663.866 108.751 630.266 131.551C614.599 141.217 582.466 154.751 579.266 131.551C580.432 121.884 588.066 103.751 609.266 108.551C621.932 114.551 656.366 120.051 692.766 94.0508L702.266 85.5508C709.932 87.3841 726.166 88.2508 729.766 77.0508C727.266 73.5508 718.666 70.9508 704.266 88.5508C698.599 95.3841 691.766 109.251 709.766 110.051C719.599 110.217 744.366 105.551 764.766 85.5508M764.766 85.5508C763.266 84.0508 763.666 77.8508 777.266 65.0508C781.266 61.3841 790.066 54.1508 793.266 54.5508C794.432 54.8841 795.966 56.7508 792.766 61.5508L785.766 73.0508C785.099 74.5508 783.866 77.8508 784.266 79.0508M764.766 85.5508C765.266 86.7174 769.866 87.8508 784.266 83.0508C789.432 81.5508 800.766 79.4508 804.766 83.0508C808.266 86.3841 810.466 96.6508 791.266 111.051C783.599 116.051 767.566 124.751 764.766 119.551C763.932 118.551 765.066 114.951 776.266 108.551C791.266 100.717 824.266 85.2508 836.266 86.0508M838.766 82.0508C833.432 91.5508 825.966 110.751 838.766 111.551C854.766 112.551 869.266 103.551 887.266 91.5508M887.266 91.5508C894.766 82.0508 910.566 66.6508 913.766 81.0508L912.766 87.0508M887.266 91.5508C883.932 96.2174 878.666 105.351 884.266 104.551C889.866 103.751 908.599 88.5508 917.266 81.0508L934.766 69.5508C937.099 68.2174 940.766 65.8508 936.766 67.0508C931.766 68.5508 921.266 78.0508 927.266 89.0508C933.266 100.051 941.766 109.551 927.266 134.051C922.099 141.551 908.866 155.751 897.266 152.551C894.432 151.551 893.566 145.051 912.766 127.051C924.932 116.051 952.666 92.4508 966.266 86.0508M966.266 86.0508L976.766 58.0508M966.266 86.0508C963.099 94.5508 958.366 111.551 964.766 111.551C966.766 111.051 972.566 106.951 979.766 94.5508C985.766 84.8841 999.566 66.4508 1006.77 70.0508C1007.77 70.2174 1008.77 73.6508 1004.77 86.0508C1001.93 92.8841 1001.77 105.251 1023.77 100.051C1031.1 98.7174 1048.07 94.0508 1057.27 86.0508M845.766 59.0508C843.432 62.7174 840.666 69.0508 848.266 65.0508C851.432 62.5508 856.166 57.8508 849.766 59.0508L842.766 62.5508M1064.27 81.0508C1062.93 80.5508 1060.17 80.3508 1059.77 83.5508C1060.27 84.8841 1062.07 87.0508 1065.27 85.0508C1065.6 83.8051 1065.87 81.2611 1064.27 81.0508Z" stroke="black"/>
</svg>
