<svg width="56" height="49" viewBox="0 0 56 49" fill="none" xmlns="http://www.w3.org/2000/svg">
<path d="M45.4574 0L43.8394 1.62049L41.1988 4.26325L33.5997 11.8713L33.2798 12.1922L30.9605 14.5134L27.9993 17.4771L22.7201 12.1922L17.572 7.03849L13.8386 3.30107L12.1599 1.62049L10.5411 0H5.2627L8.56018 3.30107L11.1994 5.94315L12.1605 6.90601L12.2936 7.03849L18.6662 13.418L19.7603 14.5134L20.0809 14.8343L22.3995 17.1554L22.7201 17.4764L23.4937 18.2508L27.9993 22.7612L29.8663 20.8929L32.5055 18.2508L33.2791 17.4764L33.5997 17.1554L35.9197 14.8343L36.2389 14.5134L43.7057 7.03849L43.838 6.90601L44.7991 5.94315L47.439 3.30107L50.7365 0H45.4574Z" fill="#6C757C"/>
<path d="M41.0664 48.1495V41.1288V36.9372V36.1082L40.2382 36.9372L37.3337 39.8456L36.5049 40.6747L35.9203 41.2613L33.6003 43.5831L33.2797 43.9033L32.7715 44.4121H37.3337V48.1495H41.0664Z" fill="#6C757C"/>
<path d="M18.6679 44.4121H23.2301L22.7219 43.9033L22.4013 43.5831L20.0827 41.2613L19.4968 40.6747L18.6679 39.8456L15.7634 36.9372L14.9346 36.1082V36.9372V41.1288V48.1495H18.6679V44.4121Z" fill="#6C757C"/>
<path d="M52.2666 3.75441L51.7584 4.26316L49.1192 6.90592L41.0665 14.9667L38.5603 17.477L37.7867 18.2507L33.6004 22.4416L33.2798 22.7625L30.6406 25.4046L29.867 26.179L28 28.048L25.3601 25.4046L22.7209 22.7625L22.4003 22.4416L14.4806 14.5133L7.01381 7.0384L6.8808 6.90592L4.24158 4.26316L3.73338 3.75441L0 0.017662V14.5133V15.8743V18.2507V19.0797V21.1584V21.9881V24.3646V25.7255V29.351V29.7689V48.1494H3.73338V44.412V41.7699V14.5133V14.3255V9.03994L4.24158 9.54869L5.46739 10.7758L6.88216 12.1921L7.46676 12.7774L9.20077 14.5133L9.52138 14.8342L12.1613 17.477L12.9341 18.2507L14.8005 20.1191L14.9335 20.2522L16.6675 21.9881L17.4411 22.7625L20.0817 25.4053L20.4009 25.7255L22.4003 27.7271L22.7209 28.048L24.1343 29.463L25.3608 30.6908L26.1336 31.4645L27.8677 33.2004H28.133L29.867 31.4645L30.6406 30.6908L31.8664 29.463L33.2805 28.048L33.6004 27.7271L35.5998 25.7255L35.9204 25.4053L37.3338 23.9897L38.5603 22.7625L39.3332 21.9881L41.0665 20.2522L41.1995 20.1191L43.0665 18.2507L43.8401 17.477L44.7999 16.5148L46.48 14.8342L46.7999 14.5133L48.5332 12.7774L49.1192 12.1921L50.5326 10.7758L51.7598 9.54869L52.2666 9.03994V41.7699V44.412V48.1494H56V31.7288V29.6508V26.4446V24.3646V21.1584V19.0797V18.2507V15.8743V14.5133V0.017662L52.2666 3.75441Z" fill="#6C757C"/>
<path d="M48.5323 43.3168V39.2038V38.0326V33.9196V32.7464V28.6334V27.4609V23.3492V22.176V18.063L44.6113 21.9882L43.8391 22.7626L41.1986 25.4047L33.4112 33.2005L33.2789 33.333L30.6396 35.9764L29.8661 36.7495L29.6785 36.9373L27.9991 38.6185L26.3203 36.9373L26.1327 36.7495L25.3598 35.9764L22.7199 33.333L22.5869 33.2005L20.0794 30.6902L14.7996 25.4047L12.1603 22.7626L11.3868 21.9882L7.46582 18.063V22.176V23.3492V27.4609V28.6334V32.7464V33.9196V38.0326V39.2038V43.3168V48.1496H11.1992V42.9412V39.58V36.9373V27.0866L17.4388 33.333L21.0398 36.9373L22.3993 38.2989L22.7199 38.6192L27.9991 43.9047L31.2256 40.6747L33.2795 38.6192L33.5995 38.2989L34.959 36.9373L44.7989 27.0866V36.9373V39.58V44.4121V48.1496H48.5323V43.3168Z" fill="#6C757C"/>
</svg>
