<svg viewBox="0 0 378 147" preserveAspectRatio="xMidYMax meet"  width="376" height="146" viewBox="0 0 376 146" fill="none" xmlns="http://www.w3.org/2000/svg"zz>
    <path class="path" d="M23.5278 141.095C6.52779 150.595 -17.2722 152.195 23.5278 82.5946C64.3278 12.9946 86.1942 3.59464 92.0273 7.59464C99.0273 9.09465 106.227 29.8947 79.0273 101.095L67.0273 129.095C65.0273 133.261 61.0273 139.595 61.0273 131.595C61.0273 123.595 81.3607 89.5947 91.5273 73.5947C101.861 55.928 125.827 19.7947 139.027 16.5947C152.227 13.3947 142.194 67.5947 135.527 95.0947L125.027 127.595C122.861 131.261 117.927 135.495 115.527 123.095C113.127 110.695 149.194 95.5947 167.527 89.5947L192.527 84.5947M192.527 84.5947C197.694 77.2613 211.027 63.0947 218.527 68.0947C219.194 68.428 221.027 70.8947 223.027 76.0947M192.527 84.5947C189.694 88.2613 184.427 96.4947 186.027 100.095C188.027 104.595 196.027 98.5947 209.027 84.5947C222.027 70.5947 226.527 69.5947 229.027 69.0947C231.527 68.5947 232.027 70.5947 232.027 75.0947C232.027 79.5947 230.527 93.5947 241.027 93.0947C251.527 92.5947 263.527 86.5947 270.027 83.5947M270.027 83.5947C271.527 80.2613 274.327 70.9947 273.527 60.5947M270.027 83.5947L264.527 104.095C264.361 105.428 264.527 107.695 266.527 106.095C268.527 104.495 269.694 97.7613 270.027 94.5947C272.527 83.5947 280.627 62.1947 293.027 64.5947C294.861 65.2613 298.827 66.9947 300.027 68.5947C301.227 70.1947 305.194 70.5947 307.027 70.5947M336.527 7.09467C337.861 4.76134 340.727 0.294672 341.527 1.09467C342.327 1.89467 339.861 7.09471 338.527 9.59473L311.027 75.0947C306.194 87.2614 297.227 112.595 300.027 116.595C301.027 117.261 303.827 116.195 307.027 106.595C310.227 96.9947 319.361 85.5947 323.527 81.0947L334.527 71.0947C336.361 69.5947 338.927 66.4947 334.527 66.0947C329.027 65.5947 323.527 85.0947 323.527 90.5947C323.527 96.0947 328.527 115.095 360.527 98.0947C365.027 94.7614 374.627 87.2947 377.027 84.0947" stroke="black"/>
</svg>