<svg viewBox="0 0 744 96" fill="none">
    <path class="path" d="M31.1037 2.5C29.7704 10.1667 25.9037 29.1 21.1037 43.5C15.1037 61.5 9.6037 81 3.1037 92.5C1.77037 95 -0.296296 98 2.1037 90C5.1037 80 26.1035 36 51.6035 10.5C57.1035 6.16667 67.4035 1.4 64.6035 17C63.4368 21.3333 59.8035 33.1 54.6035 45.5C49.7702 56.6667 43.0035 79 54.6035 79C58.1035 80 71.9035 75.5 99.1035 49.5C94.2702 57.8333 89.4035 73.2 108.604 68C113.77 66.3333 126.304 60.6 135.104 51M135.104 51C142.437 43.8333 156.504 32.2 154.104 43L152.104 48C151.604 49.1667 151.104 51.6 153.104 52M135.104 51C130.104 56 123.104 66.4 135.104 68C140.104 68.1667 154.504 65.2 172.104 52C177.27 53 188.004 53.3 189.604 46.5C189.104 44.6667 185.704 42.8 176.104 50C169.604 57.3333 162.404 71 185.604 67C191.104 65.8333 204.104 61.2 212.104 52M102.104 36.5C105.104 35.1667 110.404 33.3 107.604 36.5C104.437 39 99.3035 42 104.104 34M280.604 1.5C276.77 7.5 265.804 31.4 252.604 79C250.604 86 247.804 98.7 252.604 93.5C257.104 74.5 266.604 32.8 268.604 18C267.937 15.1667 264.904 10.8 258.104 16C261.27 15.6667 269.704 14.8 278.104 14C285.104 13.6667 299.604 12.5 301.604 10.5M281.604 40C276.604 47.5 268.204 63.8 274.604 69C277.937 70.3333 286.604 67.8 294.604 47C295.437 41.5 292.904 33.6 276.104 46C271.77 50.6667 269.404 59.2 294.604 56C298.77 55.5 308.004 54 311.604 52M357.104 41C353.437 47.8333 346.904 62 350.104 64C350.437 64.8333 353.104 63.4 361.104 51C365.937 43.3333 375.604 30.1 375.604 38.5L367.104 59.5C366.104 63 366.304 67.9 375.104 59.5C380.437 53.5 391.804 42.1 394.604 44.5C395.437 44.5 396.404 47.1 393.604 57.5C392.27 61.8333 393.904 67.9 411.104 57.5L421.104 52C425.77 53.1667 435.804 53.8 438.604 47C438.77 44.6667 436.504 41.9 426.104 49.5C420.27 55.3333 412.104 67.1 426.104 67.5C432.604 67.3333 448.704 64 461.104 52C465.937 53.1667 476.304 53.7 479.104 46.5C477.604 44.1667 472.104 42.4 462.104 54C458.604 58.8333 454.704 68.3 467.104 67.5C473.604 67.3333 489.504 64 501.104 52M520.104 1C513.937 16.6667 499.704 54.4 492.104 80C490.77 84.6667 488.604 94 490.604 94C491.437 94.3333 493.504 92.1 495.104 80.5L507.104 30.5C509.437 24.3333 511.904 12.3 503.104 13.5C501.77 14 498.904 15.2 498.104 16C501.77 15.3333 509.604 14 511.604 14C520.437 13.8333 538.804 13.1 541.604 11.5M582.104 41.5C578.937 47 574.504 57.7 582.104 56.5C586.604 55.1667 598.004 50 607.604 40C607.937 38.8333 607.504 37.8 603.104 43C601.77 45 599.504 50.5 601.104 56.5C603.604 63.8333 605.404 80.6 592.604 89C586.77 92.8333 575.804 98.8 578.604 92C583.437 86.1667 598.704 71.2 621.104 58L632.104 52M641.104 39.5C637.937 42.1667 631.504 50.7 631.104 63.5C630.77 67.3333 633.004 72.7 644.604 63.5C649.937 55.5 658.204 39.5 648.604 39.5C645.27 39.5 637.304 41.6 632.104 50C631.604 51.3333 632.004 54.4 637.604 56C643.937 56.6667 659.404 56.8 670.604 52M675.604 39.5C671.77 46.8333 665.704 61.6 672.104 62C674.604 62.6667 681.804 61 690.604 49C693.437 45.8333 699.004 40 698.604 42C698.937 42 699.104 43.1 697.104 47.5C694.104 53.1667 692.504 62.8 710.104 56L719.604 51.5M743.604 2.5C743.104 2.16667 741.404 3.6 738.604 12C735.937 20.3333 729.504 43.8 725.104 71M723.104 78.5C722.604 78.5 721.504 78.7 721.104 79.5C720.604 80.5 722.104 82 724.104 81.5C724.604 80.5 725.104 78.5 723.104 78.5Z"/>
</svg>
