<svg width="647" height="96" viewBox="0 0 647 96" fill="none" xmlns="http://www.w3.org/2000/svg">
    <path class="path" d="M16.7721 32.9996C15.1054 43.1663 11.0721 66.3996 8.27209 77.9996C7.10542 82.333 4.17209 91.3996 1.77209 92.9996C0.938754 93.333 0.0720875 91.8996 3.27209 83.4996C6.60555 74.333 14.7725 53.6996 20.7725 44.4996C25.6058 37.1663 37.0725 24.2996 44.2725 31.4996C46.2725 33.6664 46.1725 41.3 29.7725 54.5C27.6251 56.1667 22.3187 58.9 18.2725 56.5C17.4391 56.1667 16.4725 55.3 19.2725 54.5C21.6058 54.1667 27.4725 53.6 30.2725 54C36.4391 54 49.6725 53.2 53.2725 50M53.2725 50C54.2725 47.5 56.1725 41 55.7725 35M53.2725 50L49.7725 62.5C49.6058 63.3333 49.7725 64.7 51.7725 63.5L54.2725 54.5C56.1058 47.6667 61.4725 34.8 68.2725 38C69.4391 38.6667 71.9725 40.1 72.7725 40.5C73.2725 40.8333 74.7725 41.5 76.7725 41.5M84.2725 38C81.2725 41.5 75.1725 50.8 74.7725 60C74.6058 63.3333 75.9725 68.9 82.7725 64.5C87.7725 61 97.3725 51.1 95.7725 39.5C94.1058 37.5 88.3725 35.6 78.7725 44C75.7725 46.6667 72.6725 52.4 84.2725 54C89.4391 54.3333 102.372 53.9 112.772 49.5M112.772 49.5L113.772 45M112.772 49.5C111.272 58 105.872 78 96.2725 90C94.7725 92.1667 91.0725 96.2 88.2725 95C87.4391 94.6667 86.8725 92.9 91.2725 88.5C102.772 78 128.672 55.5 140.272 49.5C144.772 50.6667 154.472 51.4 157.272 45C157.439 43.1579 155.672 40.6791 147.272 45.5C144.439 47.3333 138.572 52.4 137.772 58C136.939 61.6667 139.672 67.7 157.272 62.5C161.606 60.8333 171.572 56.5 176.772 52.5M176.772 52.5C182.606 45.8333 195.072 33.6 198.272 38C198.606 38.5 198.672 40.9 196.272 46.5C195.939 47.3333 195.572 49.1 196.772 49.5M176.772 52.5C173.439 56.6667 169.772 65 181.772 65C188.439 64.1667 204.472 60 215.272 50M234.272 1C231.772 5.66667 225.472 19.1 220.272 35.5L207.772 75.5L205.272 86C204.939 88 204.772 91.4 206.772 89C207.606 85.5 209.872 76 212.272 66C215.272 55.1667 221.572 31.5 222.772 23.5C223.939 19.5 224.372 11.8 216.772 13C215.272 13.3333 212.372 14.4 212.772 16C213.272 15.5 220.272 13.5 225.272 13.5C233.106 13.3333 249.672 12.7 253.272 11.5M111.272 29.5C113.939 29.3333 120.372 29.4 120.772 31C120.772 32 119.172 33.8 112.772 33C110.939 32.8333 107.972 32.1 110.772 30.5C113.572 28.9 114.606 28.5 114.772 28.5M298.272 33.5C297.106 35 295.372 38 297.772 38C300.272 36.6667 304.572 33.8 301.772 33C301.272 32.8333 299.272 33.2 295.272 36M293.772 47.5C290.439 52.8333 285.772 64 293.772 66C298.106 66.8333 310.672 65 326.272 51M326.272 51L333.272 33M326.272 51C324.606 56 322.172 66 325.772 66C326.939 65.6667 330.872 62.2 337.272 51C341.939 45.1667 351.472 35.1 352.272 41.5C351.606 44.1667 350.172 50.4 349.772 54C349.272 57 351.572 62.1 364.772 58.5C368.772 57.3333 377.972 54 382.772 50M426.772 38.5C423.772 44.3333 417.972 56.7 418.772 59.5C418.772 61 419.572 63.1 422.772 59.5C427.272 52.8333 436.672 39.1 438.272 37.5C439.772 35.8333 442.972 33 443.772 35C443.939 35.8333 443.372 39.6 439.772 48C437.772 51.8333 434.272 59.8 436.272 61C437.272 61 439.272 60 445.272 54.5C449.606 50.3333 458.872 42 461.272 42C462.606 41.6667 464.872 42.5 463.272 48.5C462.772 49 459.272 60 463.772 60.5C465.272 60.5 470.272 60.5 487.772 49.5M489.272 47.5C485.939 52.3333 481.272 62.8 489.272 66C495.439 66.1667 511.572 62.6 522.772 49M522.772 49L528.772 33M522.772 49C521.272 52.8333 518.672 61.5 520.272 65.5C520.939 66.3333 523.372 66.2 527.772 59C533.272 50.3333 544.972 34.7 547.772 41.5C547.439 43.6667 546.472 48.8 545.272 52C544.272 54.6667 544.572 59.9 553.772 59.5C559.439 58.6667 572.172 55.8 577.772 51M577.772 51C582.272 42.5 592.472 27.6 597.272 36C597.772 38.3333 598.572 43.7 597.772 46.5M577.772 51C575.772 54.6667 572.572 62.3 575.772 63.5C577.439 63.6667 582.372 61.7 588.772 52.5C594.272 44.6667 606.672 25.9 612.272 13.5L615.772 5C615.939 3.66667 615.672 1.8 613.272 5C611.772 8.16667 607.672 18.5 603.272 34.5C599.939 46.5 593.072 73.3 592.272 84.5C592.106 87 591.772 92.3 591.772 93.5C591.772 94.8333 592.372 95.9 594.772 89.5M493.772 33.5C492.606 35.3333 490.972 38.7 493.772 37.5C494.172 37.5 496.606 35.5 497.772 34.5C498.272 33.6667 498.572 32.3 495.772 33.5C492.972 34.7 491.606 35.3333 491.272 35.5M622.272 22.5C622.606 21.5 622.872 19.3 621.272 18.5L619.272 16.5C617.772 14.3333 616.072 9 621.272 5C625.106 2.66667 634.672 -0.2 642.272 7C645.606 9.16667 649.472 17.3 638.272 32.5C632.606 40.8333 621.072 59.7 620.272 68.5M619.272 75C618.272 75.3333 616.672 76.4 618.272 78C618.939 78.5 620.472 78.9 621.272 76.5C621.439 75.8333 621.272 74.6 619.272 75Z" stroke="black"/>
</svg>
