<svg width="427" height="148" viewBox="0 0 427 148" fill="none" xmlns="http://www.w3.org/2000/svg">
    <path class="path" d="M9.82718 52.0398C10.3272 54.3731 10.4272 62.1398 6.82718 74.5398L1.32718 94.5398C0.827176 96.7064 0.527176 100.54 3.32718 98.5398C4.16052 96.3731 6.0272 90.8398 6.82718 86.0398C9.32717 75.0398 17.4271 53.7398 29.8271 56.5398C31.1605 57.2064 34.6271 59.0398 37.8271 61.0398C39.1605 61.7064 42.2271 62.8398 43.8271 62.0398M71.3271 67.5398L68.3271 61.0398C67.4938 59.7064 64.4271 57.6398 58.8271 60.0398C52.1605 63.7064 37.9271 74.6398 34.3271 89.0398C33.8271 92.2064 34.8271 96.9398 42.8271 90.5398L71.3271 64.0398C74.1605 62.2064 79.9271 59.4398 80.3271 63.0398L80.8271 71.0398C80.3271 77.3731 82.5271 88.9398 95.3271 84.5398L118.327 76.0398M118.327 76.0398L128.327 49.0398M118.327 76.0398C115.66 82.8731 111.227 97.3398 114.827 100.54C115.994 102.373 120.927 101.84 131.327 85.0398C136.827 76.0398 149.827 58.4398 157.827 60.0398C158.827 60.5398 160.027 63.6398 156.827 72.0398C154.994 77.7064 153.227 89.2398 160.827 90.0398C164.994 91.3731 177.727 92.0398 195.327 84.0398L207.827 77.0398M207.827 77.0398C217.16 61.2064 236.727 35.3398 240.327 58.5398V70.0398M207.827 77.0398C202.994 87.0398 197.227 104.64 212.827 95.0398C219.327 88.7064 235.427 70.0398 247.827 46.0398L263.327 17.5398C266.327 11.7064 271.427 0.239774 267.827 1.03977C265.327 3.53986 258.627 15.14 251.827 41.54L240.327 85.54C237.827 98.3734 232.627 126.34 231.827 135.54L230.827 145.54C230.827 146.707 231.227 148.24 232.827 145.04C234.427 141.84 235.16 140.04 235.327 139.54M273.327 57.04C270.16 60.3734 262.927 70.44 259.327 84.04C256.994 93.3734 256.327 109.44 272.327 99.04C281.994 90.54 299.127 70.34 290.327 57.54C287.16 55.3734 277.027 54.64 261.827 69.04C258.327 73.3734 256.727 82.24 278.327 83.04C285.16 83.2067 302.927 82.04 319.327 76.04M319.327 76.04L327.827 58.04M319.327 76.04C316.494 82.54 312.027 95.44 316.827 95.04C317.994 95.2067 323.027 91.24 333.827 74.04C339.494 64.8734 351.727 47.44 355.327 51.04C356.327 52.04 356.227 57.94 347.827 73.54C345.327 79.2067 340.827 91.14 342.827 93.54C343.66 94.04 347.427 93.24 355.827 86.04C362.66 78.8734 377.827 64.44 383.827 64.04C385.66 63.2067 388.627 64.04 385.827 74.04C382.827 82.54 380.327 97.94 394.327 91.54C398.494 90.2067 410.727 85.24 426.327 76.04" stroke="black"/>
</svg>
