<svg width="457" height="150" viewBox="0 0 457 150" fill="none" xmlns="http://www.w3.org/2000/svg">
    <path class="path" d="M1.0149 53.188C0.681571 38.688 5.8149 9.18804 29.0149 7.18804C34.1815 6.52137 42.2146 14.788 33.0146 53.188L23.0146 106.688C20.6813 120.521 19.4146 147.988 33.0146 147.188C41.5146 147.188 65.4146 134.388 93.0146 83.1879C97.6813 72.688 104.915 51.9882 96.5146 53.188C84.5146 57.188 64.3146 67.6879 79.5146 77.6879C82.848 79.5212 92.1146 83.3879 102.515 84.1879C110.015 84.5212 126.915 84.9879 134.515 84.1879M136.515 80.1879C130.515 90.5212 123.015 110.988 141.015 110.188C149.015 109.688 170.015 103.788 190.015 84.1879M190.015 84.1879C192.015 78.8545 195.615 66.6878 194.015 60.6879M190.015 84.1879L185.515 103.688C185.015 105.521 184.715 108.588 187.515 106.188C188.348 103.355 190.315 96.8879 191.515 93.6879C194.015 82.5212 202.015 61.0879 214.015 64.6879C215.181 65.1879 218.315 66.7879 221.515 69.1879C222.515 69.8546 225.315 70.9879 228.515 70.1879M144.015 57.1879C142.181 60.3546 139.615 66.0879 144.015 63.6879C147.348 62.1879 153.015 58.7879 149.015 57.1879C148.515 57.0212 146.215 57.4879 141.015 60.6879M264.015 5.68789C262.681 6.52122 257.315 16.1879 246.515 48.1879L221.515 124.188C218.515 132.855 213.615 149.988 218.015 149.188C218.848 149.521 220.915 147.588 222.515 137.188L242.515 53.1879C245.515 42.5212 248.815 21.8879 238.015 24.6879C235.848 25.0212 229.515 26.6879 228.515 29.6879C230.181 28.6879 234.815 26.5879 240.015 26.1879L269.515 24.6879C274.848 24.5212 287.415 23.7879 295.015 22.1879M258.515 65.6879C252.515 75.1879 242.915 95.2879 252.515 99.6879C255.181 101.021 263.615 100.088 276.015 85.6879L291.515 69.1879C292.848 67.8546 295.315 66.1879 294.515 70.1879L289.015 83.1879C287.681 87.5212 287.915 95.7879 299.515 94.1879C303.515 93.3546 314.415 90.2879 326.015 84.6879M326.015 84.6879C331.348 77.3546 344.015 63.7879 352.015 68.1879C353.181 70.0212 355.815 74.0879 357.015 75.6879M326.015 84.6879C323.181 88.6879 318.015 97.4879 320.015 100.688C321.015 101.855 324.415 102.888 330.015 97.6879C337.681 89.1879 354.815 71.6879 362.015 69.6879C363.515 68.6879 366.415 68.4879 366.015 75.6879C364.681 84.5212 366.715 99.9879 385.515 91.1879L403.015 84.1879M403.015 84.1879C407.415 63.3878 418.181 34.5213 423.015 22.688C428.615 9.08799 433.348 3.02126 435.015 1.68789C438.215 -0.312111 437.015 2.52122 436.015 4.18789C432.415 9.78789 432.181 15.1879 432.515 17.1879M403.015 84.1879C400.015 97.5213 395.515 126.288 401.515 134.688C403.848 137.855 411.215 141.488 422.015 130.688C430.681 119.355 449.715 94.1878 456.515 84.1879" stroke="black"/>
</svg>
