<svg viewBox="0 0 1800 491" fill="none" xmlns="http://www.w3.org/2000/svg" preserveAspectRatio="xMidYMax meet">
    <path d="M300.09 6.3408H356.726V12.4821C346.263 12.4821 339.667 13.8469 336.938 16.5763C334.208 19.3058 331.706 25.6746 329.432 35.6827L238.676 484H232.535L178.628 218.558L124.72 484H117.897L27.1415 35.6827C25.3219 25.6746 22.8199 19.3058 19.6355 16.5763C16.906 13.8469 10.5372 12.4821 0.529097 12.4821V6.3408H80.3664V12.4821C70.3583 12.4821 64.217 14.0743 61.9424 17.2587C59.6679 19.9882 59.4404 25.9021 61.2601 35.0003L134.956 400.068L175.216 202.863L141.78 35.6827C139.505 25.6746 136.776 19.3058 133.591 16.5763C130.862 13.8469 124.493 12.4821 114.485 12.4821V6.3408H242.771V12.4821C235.492 12.4821 230.26 13.1645 227.076 14.5293C223.892 15.894 221.39 17.9411 219.57 20.6706C218.205 23.4001 216.84 28.4041 215.476 35.6827L195.687 133.944L249.594 400.068L323.29 35.6827C325.565 25.6746 325.337 19.3058 322.608 16.5763C320.333 13.8469 312.827 12.4821 300.09 12.4821V6.3408ZM175.216 35.0003L192.275 118.25L209.334 35.6827C211.154 26.1296 210.927 19.9882 208.652 17.2587C206.832 14.0743 201.373 12.4821 192.275 12.4821C187.726 12.4821 184.087 12.9371 181.357 13.8469C179.083 14.7567 177.263 16.1214 175.898 17.9411C174.988 19.3059 174.534 21.5804 174.534 24.7648C174.534 27.4943 174.761 30.9061 175.216 35.0003ZM555.472 380.28H560.931C549.558 434.414 542.28 468.988 539.095 484H348.031V477.859C358.494 477.859 365.546 476.266 369.185 473.082C373.279 469.898 375.326 463.756 375.326 454.658V35.6827C375.326 26.5845 373.279 20.4431 369.185 17.2587C365.546 14.0743 358.494 12.4821 348.031 12.4821V6.3408H530.907L553.425 110.061H547.966C547.511 108.241 546.829 105.512 545.919 101.873C542.734 89.1351 540.232 79.8094 538.413 73.8955C537.048 67.5267 534.546 59.7932 530.907 50.6949C527.267 41.1417 523.628 34.318 519.989 30.2238C516.349 25.6746 511.573 21.5804 505.659 17.9411C499.745 14.3018 492.921 12.4821 485.188 12.4821H436.057C425.139 12.4821 417.861 14.0743 414.221 17.2587C410.582 20.4431 408.762 26.5845 408.762 35.6827V185.804H470.858C477.227 185.804 482.458 184.439 486.553 181.71C490.647 178.98 493.604 174.659 495.423 168.745C497.243 162.831 498.38 157.145 498.835 151.686C499.29 146.227 499.518 138.721 499.518 129.167H505.659V346.161H499.518V244.488C499.063 209.46 487.917 191.946 466.082 191.946H408.762V454.658C408.762 463.756 410.582 469.898 414.221 473.082C417.861 476.266 425.139 477.859 436.057 477.859H492.694C500.428 477.859 507.251 476.266 513.165 473.082C519.079 469.443 523.856 465.349 527.495 460.799C531.134 456.25 534.773 449.427 538.413 440.328C542.052 430.775 544.554 423.042 545.919 417.128C547.739 410.759 550.241 401.206 553.425 388.468C554.335 384.829 555.017 382.099 555.472 380.28ZM707.886 226.064C738.82 228.794 763.385 243.123 781.582 269.053C799.778 294.983 808.877 323.643 808.877 355.032C808.877 390.97 798.186 421.449 776.805 446.47C755.424 471.49 728.584 484 696.286 484H565.27V477.859C575.733 477.859 582.785 476.266 586.424 473.082C590.518 469.898 592.565 463.756 592.565 454.658V35.6827C592.565 26.5845 590.518 20.4431 586.424 17.2587C582.785 14.0743 575.733 12.4821 565.27 12.4821V6.3408H677.862C711.07 6.3408 735.863 16.8038 752.24 37.7298C769.072 58.6559 777.488 85.7232 777.488 118.932C777.488 144.407 771.346 166.925 759.064 186.487C746.781 206.048 729.722 219.24 707.886 226.064ZM626.001 35.6827V226.064H677.862C692.419 226.064 704.474 223.107 714.027 217.193C723.58 210.824 730.632 201.954 735.181 190.581C739.73 179.208 742.687 168.063 744.051 157.145C745.871 146.227 746.781 133.489 746.781 118.932C746.781 104.83 745.871 92.3195 744.051 81.4015C742.687 70.0287 739.73 58.8833 735.181 47.9654C730.632 36.5926 723.58 27.9492 714.027 22.0353C704.474 15.6665 692.419 12.4821 677.862 12.4821H653.296C642.378 12.4821 635.1 14.0743 631.46 17.2587C627.821 20.4431 626.001 26.5845 626.001 35.6827ZM775.44 355.032C775.44 344.569 774.758 334.106 773.393 323.643C772.029 312.725 769.527 301.807 765.887 290.889C762.248 279.516 757.471 269.736 751.558 261.547C746.099 252.904 738.82 245.853 729.722 240.394C720.623 234.935 710.16 232.205 698.333 232.205H626.001V454.658C626.001 463.756 627.821 469.898 631.46 473.082C635.1 476.266 642.378 477.859 653.296 477.859H696.286C710.843 477.859 723.353 474.447 733.816 467.623C744.734 460.799 752.922 451.474 758.381 439.646C764.295 427.363 768.617 414.398 771.346 400.751C774.076 386.649 775.44 371.409 775.44 355.032ZM994.039 6.3408L1016.56 110.061H1011.1C1010.64 108.241 1009.96 105.512 1009.05 101.873C1005.87 89.1351 1003.36 79.8094 1001.54 73.8955C1000.18 67.5267 997.678 59.7932 994.039 50.6949C990.4 41.1417 986.76 34.318 983.121 30.2238C979.482 25.6746 974.705 21.5804 968.791 17.9411C962.877 14.3018 956.054 12.4821 948.32 12.4821H898.507C891.228 12.4821 885.769 13.1645 882.13 14.5293C878.491 15.894 875.761 18.396 873.942 22.0353C872.577 25.2197 871.895 29.7689 871.895 35.6827V185.804H933.99C940.359 185.804 945.591 184.439 949.685 181.71C953.779 178.98 956.736 174.659 958.556 168.745C960.375 162.831 961.513 157.145 961.967 151.686C962.422 146.227 962.65 138.721 962.65 129.167H968.791V346.161H962.65V248.582C962.65 210.824 951.504 191.946 929.214 191.946H871.895V454.658C871.895 463.756 873.714 469.898 877.354 473.082C880.993 476.266 888.044 477.859 898.507 477.859V484H811.164V477.859C821.627 477.859 828.678 476.266 832.317 473.082C836.411 469.898 838.458 463.756 838.458 454.658V35.6827C838.458 26.5845 836.411 20.4431 832.317 17.2587C828.678 14.0743 821.627 12.4821 811.164 12.4821V6.3408H994.039ZM1138.57 0.199466C1173.6 0.199466 1201.8 22.2628 1223.18 66.3894C1245.02 110.516 1255.94 170.11 1255.94 245.17C1255.94 320.231 1245.02 379.825 1223.18 423.951C1201.8 468.078 1173.6 490.141 1138.57 490.141C1103.54 490.141 1075.34 468.078 1053.95 423.951C1032.57 379.825 1021.88 320.231 1021.88 245.17C1021.88 170.11 1032.57 110.516 1053.95 66.3894C1075.34 22.2628 1103.54 0.199466 1138.57 0.199466ZM1138.57 484C1194.52 484 1222.5 404.39 1222.5 245.17C1222.5 85.9507 1194.52 6.3408 1138.57 6.3408C1083.07 6.3408 1055.32 85.9507 1055.32 245.17C1055.32 404.39 1083.07 484 1138.57 484ZM1471.07 380.28H1477.22C1465.39 434.414 1457.88 468.988 1454.7 484H1263.63V477.859C1274.55 477.859 1281.83 476.266 1285.47 473.082C1289.11 469.898 1290.93 463.756 1290.93 454.658V35.6827C1290.93 26.5845 1289.11 20.4431 1285.47 17.2587C1281.83 14.0743 1274.55 12.4821 1263.63 12.4821V6.3408H1351.66V12.4821C1344.38 12.4821 1338.69 13.1645 1334.6 14.5293C1330.96 15.894 1328.23 18.396 1326.41 22.0353C1325.05 25.2197 1324.36 29.7689 1324.36 35.6827V454.658C1324.36 463.756 1326.18 469.898 1329.82 473.082C1333.46 476.266 1340.74 477.859 1351.66 477.859H1408.3C1416.03 477.859 1422.85 476.039 1428.77 472.4C1435.14 468.76 1440.14 464.666 1443.78 460.117C1447.87 455.568 1451.51 448.517 1454.7 438.964C1458.34 429.41 1461.07 421.449 1462.89 415.081C1464.71 408.712 1466.98 399.159 1469.71 386.421C1469.71 385.511 1469.71 384.829 1469.71 384.374C1470.16 383.919 1470.39 383.237 1470.39 382.327C1470.85 381.417 1471.07 380.735 1471.07 380.28ZM1530.28 35.6827V454.658C1530.28 463.756 1532.09 469.898 1535.73 473.082C1539.37 476.266 1546.65 477.859 1557.57 477.859V484H1469.54V477.859C1480.46 477.859 1487.74 476.266 1491.38 473.082C1495.02 469.898 1496.84 463.756 1496.84 454.658V35.6827C1496.84 26.5845 1495.02 20.4431 1491.38 17.2587C1487.74 14.0743 1480.46 12.4821 1469.54 12.4821V6.3408H1557.57V12.4821C1546.65 12.4821 1539.37 14.0743 1535.73 17.2587C1532.09 20.4431 1530.28 26.5845 1530.28 35.6827ZM1681.67 0.199466C1716.69 0.199466 1744.9 22.2628 1766.28 66.3894C1788.12 110.516 1799.03 170.11 1799.03 245.17C1799.03 320.231 1788.12 379.825 1766.28 423.951C1744.9 468.078 1716.69 490.141 1681.67 490.141C1646.64 490.141 1618.43 468.078 1597.05 423.951C1575.67 379.825 1564.98 320.231 1564.98 245.17C1564.98 170.11 1575.67 110.516 1597.05 66.3894C1618.43 22.2628 1646.64 0.199466 1681.67 0.199466ZM1681.67 484C1737.62 484 1765.6 404.39 1765.6 245.17C1765.6 85.9507 1737.62 6.3408 1681.67 6.3408C1626.17 6.3408 1598.42 85.9507 1598.42 245.17C1598.42 404.39 1626.17 484 1681.67 484Z" fill="#4F4F4F"/>
</svg>